<mxfile host="Electron" agent="Mozilla/5.0 (Windows NT 10.0; Win64; x64) AppleWebKit/537.36 (KHTML, like Gecko) draw.io/28.1.2 Chrome/138.0.7204.243 Electron/37.4.0 Safari/537.36" version="28.1.2">
  <diagram name="Page-1" id="QGXyprvhgqp48w78SiKN">
    <mxGraphModel dx="925" dy="567" grid="1" gridSize="10" guides="1" tooltips="1" connect="1" arrows="1" fold="1" page="1" pageScale="1" pageWidth="1700" pageHeight="1100" math="0" shadow="0">
      <root>
        <mxCell id="0" />
        <mxCell id="1" parent="0" />
        <mxCell id="H9AHuY_AstZXjiMWmKEy-1" value="&lt;font style=&quot;font-size: 21px;&quot;&gt;Integration Model&lt;/font&gt;" style="text;html=1;align=center;verticalAlign=middle;whiteSpace=wrap;rounded=0;" parent="1" vertex="1">
          <mxGeometry y="15" width="320" height="60" as="geometry" />
        </mxCell>
        <mxCell id="H9AHuY_AstZXjiMWmKEy-15" value="crm_cust_info" style="swimlane;fontStyle=0;childLayout=stackLayout;horizontal=1;startSize=30;horizontalStack=0;resizeParent=1;resizeParentMax=0;resizeLast=0;collapsible=1;marginBottom=0;whiteSpace=wrap;html=1;rounded=1;fillColor=#dae8fc;strokeColor=#6c8ebf;fontSize=17;" parent="1" vertex="1">
          <mxGeometry x="320" y="120" width="140" height="90" as="geometry" />
        </mxCell>
        <mxCell id="H9AHuY_AstZXjiMWmKEy-16" value="cst_key" style="text;strokeColor=none;fillColor=none;align=left;verticalAlign=middle;spacingLeft=4;spacingRight=4;overflow=hidden;points=[[0,0.5],[1,0.5]];portConstraint=eastwest;rotatable=0;whiteSpace=wrap;html=1;fontSize=17;" parent="H9AHuY_AstZXjiMWmKEy-15" vertex="1">
          <mxGeometry y="30" width="140" height="30" as="geometry" />
        </mxCell>
        <mxCell id="gZvOMO-FOF8hk5zReV2u-15" value="cst_id" style="text;strokeColor=none;fillColor=none;align=left;verticalAlign=middle;spacingLeft=4;spacingRight=4;overflow=hidden;points=[[0,0.5],[1,0.5]];portConstraint=eastwest;rotatable=0;whiteSpace=wrap;html=1;fontSize=17;" vertex="1" parent="H9AHuY_AstZXjiMWmKEy-15">
          <mxGeometry y="60" width="140" height="30" as="geometry" />
        </mxCell>
        <mxCell id="H9AHuY_AstZXjiMWmKEy-19" value="crm_sales_details" style="swimlane;fontStyle=0;childLayout=stackLayout;horizontal=1;startSize=30;horizontalStack=0;resizeParent=1;resizeParentMax=0;resizeLast=0;collapsible=1;marginBottom=0;whiteSpace=wrap;html=1;rounded=1;fillColor=#dae8fc;strokeColor=#6c8ebf;fontSize=17;" parent="1" vertex="1">
          <mxGeometry x="70" y="200" width="200" height="90" as="geometry" />
        </mxCell>
        <mxCell id="H9AHuY_AstZXjiMWmKEy-20" value="sls_cust_id" style="text;strokeColor=none;fillColor=none;align=left;verticalAlign=middle;spacingLeft=4;spacingRight=4;overflow=hidden;points=[[0,0.5],[1,0.5]];portConstraint=eastwest;rotatable=0;whiteSpace=wrap;html=1;fontSize=17;" parent="H9AHuY_AstZXjiMWmKEy-19" vertex="1">
          <mxGeometry y="30" width="200" height="30" as="geometry" />
        </mxCell>
        <mxCell id="H9AHuY_AstZXjiMWmKEy-22" value="sls_prd_key" style="text;strokeColor=none;fillColor=none;align=left;verticalAlign=middle;spacingLeft=4;spacingRight=4;overflow=hidden;points=[[0,0.5],[1,0.5]];portConstraint=eastwest;rotatable=0;whiteSpace=wrap;html=1;fontSize=17;" parent="H9AHuY_AstZXjiMWmKEy-19" vertex="1">
          <mxGeometry y="60" width="200" height="30" as="geometry" />
        </mxCell>
        <mxCell id="H9AHuY_AstZXjiMWmKEy-29" value="crm_prd_info" style="swimlane;fontStyle=0;childLayout=stackLayout;horizontal=1;startSize=30;horizontalStack=0;resizeParent=1;resizeParentMax=0;resizeLast=0;collapsible=1;marginBottom=0;whiteSpace=wrap;html=1;rounded=1;fillColor=#dae8fc;strokeColor=#6c8ebf;fontSize=17;" parent="1" vertex="1">
          <mxGeometry x="320" y="320" width="140" height="60" as="geometry" />
        </mxCell>
        <mxCell id="H9AHuY_AstZXjiMWmKEy-30" value="prd_key&amp;nbsp;" style="text;strokeColor=none;fillColor=none;align=left;verticalAlign=middle;spacingLeft=4;spacingRight=4;overflow=hidden;points=[[0,0.5],[1,0.5]];portConstraint=eastwest;rotatable=0;whiteSpace=wrap;html=1;fontSize=17;" parent="H9AHuY_AstZXjiMWmKEy-29" vertex="1">
          <mxGeometry y="30" width="140" height="30" as="geometry" />
        </mxCell>
        <mxCell id="H9AHuY_AstZXjiMWmKEy-31" style="edgeStyle=orthogonalEdgeStyle;rounded=0;orthogonalLoop=1;jettySize=auto;html=1;exitX=1;exitY=0.5;exitDx=0;exitDy=0;" parent="1" source="H9AHuY_AstZXjiMWmKEy-22" target="H9AHuY_AstZXjiMWmKEy-30" edge="1">
          <mxGeometry relative="1" as="geometry" />
        </mxCell>
        <mxCell id="H9AHuY_AstZXjiMWmKEy-32" style="edgeStyle=orthogonalEdgeStyle;rounded=0;orthogonalLoop=1;jettySize=auto;html=1;exitX=1;exitY=0.5;exitDx=0;exitDy=0;entryX=0.014;entryY=0.289;entryDx=0;entryDy=0;entryPerimeter=0;" parent="1" source="H9AHuY_AstZXjiMWmKEy-20" target="H9AHuY_AstZXjiMWmKEy-16" edge="1">
          <mxGeometry relative="1" as="geometry" />
        </mxCell>
        <mxCell id="H9AHuY_AstZXjiMWmKEy-33" value="erp_cust_az12" style="swimlane;fontStyle=0;childLayout=stackLayout;horizontal=1;startSize=30;horizontalStack=0;resizeParent=1;resizeParentMax=0;resizeLast=0;collapsible=1;marginBottom=0;whiteSpace=wrap;html=1;rounded=1;fillColor=#fff2cc;strokeColor=#d6b656;fontSize=17;" parent="1" vertex="1">
          <mxGeometry x="580" y="120" width="240" height="60" as="geometry" />
        </mxCell>
        <mxCell id="H9AHuY_AstZXjiMWmKEy-34" value="cid" style="text;strokeColor=none;fillColor=none;align=left;verticalAlign=middle;spacingLeft=4;spacingRight=4;overflow=hidden;points=[[0,0.5],[1,0.5]];portConstraint=eastwest;rotatable=0;whiteSpace=wrap;html=1;fontSize=17;" parent="H9AHuY_AstZXjiMWmKEy-33" vertex="1">
          <mxGeometry y="30" width="240" height="30" as="geometry" />
        </mxCell>
        <mxCell id="H9AHuY_AstZXjiMWmKEy-36" value="erp_loc_a101" style="swimlane;fontStyle=0;childLayout=stackLayout;horizontal=1;startSize=30;horizontalStack=0;resizeParent=1;resizeParentMax=0;resizeLast=0;collapsible=1;marginBottom=0;whiteSpace=wrap;html=1;rounded=1;fillColor=#fff2cc;strokeColor=#d6b656;fontSize=17;" parent="1" vertex="1">
          <mxGeometry x="590" y="215" width="200" height="60" as="geometry" />
        </mxCell>
        <mxCell id="H9AHuY_AstZXjiMWmKEy-37" value="cid" style="text;strokeColor=none;fillColor=none;align=left;verticalAlign=middle;spacingLeft=4;spacingRight=4;overflow=hidden;points=[[0,0.5],[1,0.5]];portConstraint=eastwest;rotatable=0;whiteSpace=wrap;html=1;fontSize=17;" parent="H9AHuY_AstZXjiMWmKEy-36" vertex="1">
          <mxGeometry y="30" width="200" height="30" as="geometry" />
        </mxCell>
        <mxCell id="H9AHuY_AstZXjiMWmKEy-39" style="edgeStyle=orthogonalEdgeStyle;rounded=0;orthogonalLoop=1;jettySize=auto;html=1;entryX=1.019;entryY=-0.133;entryDx=0;entryDy=0;entryPerimeter=0;" parent="1" source="H9AHuY_AstZXjiMWmKEy-33" target="H9AHuY_AstZXjiMWmKEy-16" edge="1">
          <mxGeometry relative="1" as="geometry" />
        </mxCell>
        <mxCell id="H9AHuY_AstZXjiMWmKEy-41" style="edgeStyle=orthogonalEdgeStyle;rounded=0;orthogonalLoop=1;jettySize=auto;html=1;entryX=1.01;entryY=0.289;entryDx=0;entryDy=0;entryPerimeter=0;" parent="1" source="H9AHuY_AstZXjiMWmKEy-37" target="H9AHuY_AstZXjiMWmKEy-16" edge="1">
          <mxGeometry relative="1" as="geometry" />
        </mxCell>
        <mxCell id="H9AHuY_AstZXjiMWmKEy-42" value="erp_px_cat_g1v2" style="swimlane;fontStyle=0;childLayout=stackLayout;horizontal=1;startSize=30;horizontalStack=0;resizeParent=1;resizeParentMax=0;resizeLast=0;collapsible=1;marginBottom=0;whiteSpace=wrap;html=1;rounded=1;fillColor=#fff2cc;strokeColor=#d6b656;fontSize=17;align=center;" parent="1" vertex="1">
          <mxGeometry x="580" y="340" width="200" height="60" as="geometry" />
        </mxCell>
        <mxCell id="H9AHuY_AstZXjiMWmKEy-43" value="id" style="text;strokeColor=none;fillColor=none;align=left;verticalAlign=middle;spacingLeft=4;spacingRight=4;overflow=hidden;points=[[0,0.5],[1,0.5]];portConstraint=eastwest;rotatable=0;whiteSpace=wrap;html=1;fontSize=17;" parent="H9AHuY_AstZXjiMWmKEy-42" vertex="1">
          <mxGeometry y="30" width="200" height="30" as="geometry" />
        </mxCell>
        <mxCell id="H9AHuY_AstZXjiMWmKEy-44" style="edgeStyle=orthogonalEdgeStyle;rounded=0;orthogonalLoop=1;jettySize=auto;html=1;entryX=1.01;entryY=0.044;entryDx=0;entryDy=0;entryPerimeter=0;" parent="1" source="H9AHuY_AstZXjiMWmKEy-43" target="H9AHuY_AstZXjiMWmKEy-30" edge="1">
          <mxGeometry relative="1" as="geometry" />
        </mxCell>
        <mxCell id="H9AHuY_AstZXjiMWmKEy-45" value="" style="rounded=1;whiteSpace=wrap;html=1;fillColor=none;dashed=1;" parent="1" vertex="1">
          <mxGeometry x="50" y="90" width="450" height="380" as="geometry" />
        </mxCell>
        <mxCell id="H9AHuY_AstZXjiMWmKEy-46" value="" style="rounded=1;whiteSpace=wrap;html=1;fillColor=none;dashed=1;" parent="1" vertex="1">
          <mxGeometry x="555" y="70" width="290" height="400" as="geometry" />
        </mxCell>
        <mxCell id="gZvOMO-FOF8hk5zReV2u-1" value="Transaction records about Sales &amp;amp; Orders" style="text;html=1;align=center;verticalAlign=middle;whiteSpace=wrap;rounded=0;" vertex="1" parent="1">
          <mxGeometry x="90" y="170" width="160" height="30" as="geometry" />
        </mxCell>
        <mxCell id="gZvOMO-FOF8hk5zReV2u-2" value="Customer Information" style="text;html=1;align=center;verticalAlign=middle;whiteSpace=wrap;rounded=0;" vertex="1" parent="1">
          <mxGeometry x="310" y="90" width="160" height="30" as="geometry" />
        </mxCell>
        <mxCell id="gZvOMO-FOF8hk5zReV2u-3" value="Current history &amp;amp; Product Information" style="text;html=1;align=center;verticalAlign=middle;whiteSpace=wrap;rounded=0;" vertex="1" parent="1">
          <mxGeometry x="295" y="290" width="190" height="30" as="geometry" />
        </mxCell>
        <mxCell id="gZvOMO-FOF8hk5zReV2u-4" value="Product Categories" style="text;html=1;align=center;verticalAlign=middle;whiteSpace=wrap;rounded=0;" vertex="1" parent="1">
          <mxGeometry x="600" y="310" width="160" height="30" as="geometry" />
        </mxCell>
        <mxCell id="gZvOMO-FOF8hk5zReV2u-5" value="Extra Customer Information (Birthdate)" style="text;html=1;align=center;verticalAlign=middle;whiteSpace=wrap;rounded=0;" vertex="1" parent="1">
          <mxGeometry x="610" y="90" width="160" height="30" as="geometry" />
        </mxCell>
        <mxCell id="gZvOMO-FOF8hk5zReV2u-6" value="Location of Customers" style="text;html=1;align=center;verticalAlign=middle;whiteSpace=wrap;rounded=0;" vertex="1" parent="1">
          <mxGeometry x="610" y="190" width="160" height="30" as="geometry" />
        </mxCell>
        <mxCell id="gZvOMO-FOF8hk5zReV2u-8" value="&lt;font style=&quot;font-size: 26px;&quot;&gt;CRM&lt;/font&gt;" style="rounded=1;whiteSpace=wrap;html=1;fillColor=#e1d5e7;strokeColor=#9673a6;" vertex="1" parent="1">
          <mxGeometry x="205" y="70" width="120" height="30" as="geometry" />
        </mxCell>
        <mxCell id="gZvOMO-FOF8hk5zReV2u-9" value="&lt;font style=&quot;font-size: 26px;&quot;&gt;ERP&lt;/font&gt;" style="rounded=1;whiteSpace=wrap;html=1;fillColor=#fff2cc;strokeColor=#d6b656;" vertex="1" parent="1">
          <mxGeometry x="630" y="60" width="120" height="30" as="geometry" />
        </mxCell>
        <mxCell id="gZvOMO-FOF8hk5zReV2u-10" value="PRODUCTS" style="rounded=0;whiteSpace=wrap;html=1;fillColor=#f8cecc;strokeColor=#b85450;fontSize=16;" vertex="1" parent="1">
          <mxGeometry x="320" y="380" width="140" height="20" as="geometry" />
        </mxCell>
        <mxCell id="gZvOMO-FOF8hk5zReV2u-11" value="CUSTOMERS" style="rounded=0;whiteSpace=wrap;html=1;fillColor=#d5e8d4;strokeColor=#82b366;fontSize=16;" vertex="1" parent="1">
          <mxGeometry x="620" y="270" width="140" height="20" as="geometry" />
        </mxCell>
        <mxCell id="gZvOMO-FOF8hk5zReV2u-17" value="CUSTOMERS" style="rounded=0;whiteSpace=wrap;html=1;fillColor=#d5e8d4;strokeColor=#82b366;fontSize=16;" vertex="1" parent="1">
          <mxGeometry x="325" y="210" width="140" height="20" as="geometry" />
        </mxCell>
        <mxCell id="gZvOMO-FOF8hk5zReV2u-18" value="PRODUCTS" style="rounded=0;whiteSpace=wrap;html=1;fillColor=#f8cecc;strokeColor=#b85450;fontSize=16;" vertex="1" parent="1">
          <mxGeometry x="610" y="400" width="140" height="20" as="geometry" />
        </mxCell>
        <mxCell id="gZvOMO-FOF8hk5zReV2u-19" value="CUSTOMERS" style="rounded=0;whiteSpace=wrap;html=1;fillColor=#d5e8d4;strokeColor=#82b366;fontSize=16;" vertex="1" parent="1">
          <mxGeometry x="630" y="170" width="140" height="20" as="geometry" />
        </mxCell>
        <mxCell id="gZvOMO-FOF8hk5zReV2u-21" value="SALES" style="rounded=0;whiteSpace=wrap;html=1;fillColor=#60a917;strokeColor=#2D7600;fontSize=16;fontColor=#ffffff;" vertex="1" parent="1">
          <mxGeometry x="80" y="290" width="180" height="20" as="geometry" />
        </mxCell>
      </root>
    </mxGraphModel>
  </diagram>
</mxfile>
